<svg width="553" height="1092" viewBox="0 0 553 1092" fill="none" xmlns="http://www.w3.org/2000/svg">
<path d="M720.905 1013.63L618.586 828.269C618.586 828.269 528.234 661.699 474.147 537.282C420.06 412.865 379.195 318.522 398.855 262.531C423.43 192.543 456.576 172.805 600.151 169.609C715.946 167.032 753.911 169.015 871.336 178.827" stroke="#ABABAB" stroke-opacity="0.3" stroke-width="5"/>
<path d="M639.434 1073.39L398.896 714.303C398.896 714.303 309.715 567.373 238.937 448.317C168.159 329.261 150.626 260.321 172.11 204.942C198.965 135.718 271.715 111.007 423.461 104.605C544.858 99.4829 805.531 137.558 922.396 167.382" stroke="#ABABAB" stroke-opacity="0.3" stroke-width="5"/>
<path d="M192 185C192 190.523 187.523 195 182 195C176.477 195 172 190.523 172 185C172 179.477 176.477 175 182 175C187.523 175 192 179.477 192 185Z" fill="#00254E" fill-opacity="0.99"/>
</svg>
