<svg width="43" height="86" viewBox="0 0 43 86" fill="none" xmlns="http://www.w3.org/2000/svg">
<path d="M22.5 43C22.5 42.1716 21.8284 41.5 21 41.5C20.1716 41.5 19.5 42.1716 19.5 43L22.5 43ZM19.9393 76.0607C20.5251 76.6464 21.4749 76.6464 22.0607 76.0607L31.6066 66.5147C32.1924 65.9289 32.1924 64.9792 31.6066 64.3934C31.0208 63.8076 30.0711 63.8076 29.4853 64.3934L21 72.8787L12.5147 64.3934C11.9289 63.8076 10.9792 63.8076 10.3934 64.3934C9.80761 64.9792 9.80761 65.9289 10.3934 66.5147L19.9393 76.0607ZM19.5 43L19.5 75L22.5 75L22.5 43L19.5 43Z" fill="white"/>
<rect x="2" y="2" width="39" height="82" rx="15" stroke="white" stroke-width="4"/>
</svg>
